<svg width="70" height="66" viewBox="0 0 70 66" fill="none" xmlns="http://www.w3.org/2000/svg">
<path d="M49.2822 58.7016C48.6568 58.5428 48.0234 58.9255 47.8683 59.5498L46.7016 64.2164C46.5441 64.8428 46.9256 65.4751 47.5509 65.6316C47.6454 65.656 47.7411 65.6666 47.8345 65.6666C48.3572 65.6666 48.832 65.313 48.965 64.7833L50.1316 60.1167C50.2879 59.4914 49.9075 58.858 49.2822 58.7016Z" fill="#2D9CDB"/>
<path d="M34.9999 35.3333C35.1515 35.3333 35.3033 35.3041 35.4456 35.2447L48.279 29.934C48.874 29.6877 49.1563 29.0052 48.9102 28.4102C48.664 27.814 47.9791 27.534 47.3854 27.7779L34.9999 32.9042L2.33326 19.3872V18.9999C2.33326 18.3559 1.81058 17.8333 1.16664 17.8333C0.52269 17.8333 -0.00012207 18.3559 -0.00012207 18.9999V20.1665C-0.00012207 20.639 0.284526 21.0649 0.720933 21.2445L34.5543 35.2445C34.6965 35.304 34.8483 35.3333 34.9999 35.3333Z" fill="#2D9CDB"/>
<path d="M48.8786 47.2857C48.594 46.7082 47.8963 46.4702 47.3165 46.7561C45.101 47.8516 41.4003 49.1256 36.1667 49.2995V38.8332C36.1667 38.1893 35.644 37.6666 35 37.6666C34.3561 37.6666 33.8334 38.1893 33.8334 38.8332V49.2889C19.347 48.827 14.6722 40.0513 14 38.5906V30.6666C14 30.0227 13.4774 29.5 12.8334 29.5C12.1895 29.5 11.6668 30.0227 11.6668 30.6666V38.8332C11.6668 38.9814 11.6948 39.1284 11.7497 39.2672C11.9527 39.7724 16.918 51.6665 35.0002 51.6665C41.32 51.6665 45.7487 50.1335 48.3504 48.8478C48.9287 48.562 49.1656 47.8632 48.8786 47.2857Z" fill="#2D9CDB"/>
<path d="M52.4999 59.8333C51.8547 59.8333 51.3332 60.3559 51.3332 60.9999V64.4999C51.3332 65.1438 51.8547 65.6665 52.4999 65.6665C53.145 65.6665 53.6665 65.1438 53.6665 64.4999V60.9999C53.6665 60.3559 53.145 59.8333 52.4999 59.8333Z" fill="#2D9CDB"/>
<path d="M68.8333 17.8333C68.1881 17.8333 67.6666 18.356 67.6666 18.9999V19.3849L53.6666 25.1471V23.0389L69.279 16.5778C69.7152 16.3982 70 15.9723 70 15.4998C70 15.0273 69.7154 14.6026 69.2802 14.4217L35.4456 0.421885C35.1597 0.304033 34.8401 0.304033 34.5543 0.421885L0.720933 14.4219C0.284526 14.6028 -0.00012207 15.0274 -0.00012207 15.4999C-0.00012207 15.9724 0.284526 16.3983 0.720933 16.5779L34.5543 30.5779C34.6966 30.6374 34.8483 30.6667 35 30.6667C35.1518 30.6667 35.3034 30.6375 35.4457 30.5779L47.6794 25.5158C48.2757 25.2708 48.558 24.5883 48.3118 23.9921C48.0655 23.3971 47.383 23.1158 46.788 23.3608L34.9999 28.2376L4.21738 15.4999L34.9999 2.76224L65.7824 15.4999L52.3879 21.0428L39.5581 16.2524C39.6258 16.0097 39.6666 15.7601 39.6666 15.4999C39.6666 13.5376 37.6168 11.9999 35 11.9999C32.3832 11.9999 30.3334 13.5376 30.3334 15.4999C30.3334 17.4622 32.3832 18.9999 35 18.9999C36.1679 18.9999 37.2097 18.6814 38.0193 18.1681L51.3333 23.1393V26.8774V26.8786V51.8815C49.9788 52.3656 48.9999 53.6477 48.9999 55.1668C48.9999 57.0965 50.5702 58.6668 52.4999 58.6668C54.4295 58.6668 55.9999 57.0965 55.9999 55.1668C55.9999 53.6479 55.0211 52.3657 53.6665 51.8815V45.2595C57.016 42.7313 58.2165 39.3643 58.269 39.215C58.311 39.0925 58.3331 38.963 58.3331 38.8336V30.6669C58.3331 30.023 57.8117 29.5003 57.1665 29.5003C56.5213 29.5003 55.9999 30.023 55.9999 30.6669V38.6178C55.7981 39.1125 55.0968 40.6373 53.6665 42.1423V27.6706L69.2777 21.2458C69.7152 21.0661 69.9999 20.6392 69.9999 20.1667V19C69.9999 18.356 69.4784 17.8333 68.8333 17.8333ZM34.9999 16.6665C33.5754 16.6665 32.6665 15.9758 32.6665 15.4999C32.6665 15.0239 33.5753 14.3333 34.9999 14.3333C36.4245 14.3333 37.3333 15.024 37.3333 15.4999C37.3333 15.976 36.4244 16.6665 34.9999 16.6665ZM52.4999 56.3333C51.8559 56.3333 51.3333 55.8095 51.3333 55.1667C51.3333 54.5238 51.8559 54 52.4999 54C53.1438 54 53.6665 54.5238 53.6665 55.1667C53.6665 55.8094 53.1438 56.3333 52.4999 56.3333Z" fill="#2D9CDB"/>
<path d="M57.1315 59.5497C56.9753 58.9256 56.3405 58.544 55.7176 58.7015C55.0922 58.8578 54.7119 59.4913 54.8683 60.1167L56.0349 64.7833C56.1679 65.3129 56.6428 65.6665 57.1654 65.6665C57.2588 65.6665 57.3544 65.656 57.449 65.6315C58.0743 65.4752 58.4547 64.8428 58.2983 64.2163L57.1315 59.5497Z" fill="#2D9CDB"/>
</svg>
