<svg width="70" height="71" viewBox="0 0 70 71" fill="none" xmlns="http://www.w3.org/2000/svg">
<path d="M39.7923 33.2019C39.9987 33.6056 40.4094 33.8388 40.8341 33.8388C41.0114 33.8388 41.1934 33.7979 41.3626 33.7117C41.4314 33.6767 48.2984 30.1883 51.6852 29.1185C52.2989 28.9237 52.6395 28.268 52.4447 27.6544C52.2509 27.0407 51.6 26.6989 50.9806 26.8926C47.4129 28.0208 40.5926 31.4858 40.3033 31.6327C39.7293 31.9244 39.5007 32.6268 39.7923 33.2019Z" fill="#B0B0B0"/>
<path d="M40.834 19.8393C41.0114 19.8393 41.1933 19.7984 41.3626 19.7122C41.4314 19.6772 48.2984 16.1888 51.6852 15.119C52.2989 14.9242 52.6395 14.2685 52.4446 13.6549C52.2509 13.0412 51.6 12.6994 50.9805 12.8931C47.4129 14.0213 40.5926 17.4863 40.3033 17.6332C39.7294 17.9249 39.5006 18.6272 39.7923 19.2023C39.9987 19.6059 40.4094 19.8393 40.834 19.8393Z" fill="#B0B0B0"/>
<path d="M68.8327 17.5058C68.1875 17.5058 67.6661 18.0284 67.6661 18.6724V64.1719C67.6661 66.1015 66.0958 67.6719 64.1661 67.6719H36.1664V64.9874C37.8674 64.3924 42.2983 63.0053 46.6663 63.0053C56.829 63.0053 63.7299 65.2558 63.7986 65.279C64.1497 65.3957 64.5418 65.3374 64.8486 65.118C65.1531 64.8987 65.3327 64.5464 65.3327 64.1718V12.8392C65.3327 12.292 64.9536 11.8183 64.4192 11.7005C64.4192 11.7005 63.5046 11.4963 61.9412 11.2092C61.31 11.0926 60.6999 11.5126 60.5832 12.1449C60.4666 12.7796 60.8853 13.3874 61.5189 13.504C62.1151 13.6137 62.6144 13.7105 62.9994 13.7876V62.6214C60.3557 61.9284 54.4852 60.6719 46.6662 60.6719C41.583 60.6719 36.5898 62.3414 35.045 62.9073C33.6719 62.3007 29.521 60.6719 24.4996 60.6719C16.4636 60.6719 9.84406 61.9973 6.99979 62.6705V13.7421C9.3296 13.1692 16.2106 11.6724 24.4996 11.6724C28.7533 11.6724 32.4013 12.9965 33.8329 13.5951V59.5053C33.8329 59.9253 34.0592 60.3139 34.4244 60.5203C34.7895 60.728 35.2399 60.7221 35.6004 60.5051C35.7159 60.4364 47.2751 53.532 57.5346 50.1126C58.0118 49.9528 58.3327 49.5083 58.3327 49.0054V1.17254C58.3327 0.789864 58.1448 0.431665 57.8298 0.2136C57.5171 -0.00460052 57.1159 -0.0547758 56.7554 0.0794807C47.421 3.58054 37.9759 9.45816 37.8812 9.51653C37.3352 9.85833 37.1684 10.5781 37.5102 11.1242C37.8509 11.6702 38.5707 11.837 39.1179 11.4952C39.2041 11.4404 47.421 6.32815 55.9993 2.87836V48.1702C48.0357 50.9375 39.7209 55.456 36.1661 57.4789V12.8392C36.1661 12.397 35.9165 11.9933 35.521 11.7951C35.3203 11.6959 30.5394 9.33921 24.4996 9.33921C13.9578 9.33921 5.85301 11.6201 5.51231 11.718C5.01179 11.8603 4.66644 12.3188 4.66644 12.8392V64.1721C4.66644 64.5372 4.83911 64.8826 5.12964 65.1031C5.33499 65.2583 5.58231 65.3388 5.83319 65.3388C5.94051 65.3388 6.04783 65.3236 6.15283 65.2933C6.23336 65.2711 14.3008 63.0054 24.4996 63.0054C28.7649 63.0054 32.4095 64.3331 33.8329 64.9292V67.672H5.83319C3.90356 67.672 2.33322 66.1017 2.33322 64.1721V18.6725C2.33322 18.0286 1.81055 17.5059 1.16661 17.5059C0.522671 17.5059 0 18.0286 0 18.6725V64.1721C0 67.3885 2.61677 70.0054 5.83332 70.0054H64.1661C67.3825 70.0054 69.9994 67.3886 69.9994 64.1721V18.6725C69.9993 18.0284 69.4779 17.5058 68.8327 17.5058Z" fill="#B0B0B0"/>
<path d="M39.7923 26.2018C39.9987 26.6056 40.4094 26.8388 40.8341 26.8388C41.0114 26.8388 41.1934 26.7979 41.3626 26.7117C41.4314 26.6767 48.2984 23.1883 51.6852 22.1185C52.2989 21.9237 52.6395 21.268 52.4447 20.6544C52.2509 20.0407 51.6 19.6989 50.9806 19.8926C47.4129 21.0208 40.5926 24.4858 40.3033 24.6327C39.7293 24.9244 39.5007 25.6268 39.7923 26.2018Z" fill="#B0B0B0"/>
<path d="M39.7923 40.2018C39.9987 40.6056 40.4094 40.8388 40.8341 40.8388C41.0114 40.8388 41.1934 40.7979 41.3626 40.7117C41.4314 40.6767 48.2984 37.1883 51.6852 36.1185C52.2989 35.9237 52.6395 35.268 52.4447 34.6544C52.2509 34.0407 51.6 33.6989 50.9806 33.8926C47.4129 35.0208 40.5926 38.4858 40.3033 38.6327C39.7293 38.9244 39.5007 39.6268 39.7923 40.2018Z" fill="#B0B0B0"/>
<path d="M28.2657 21.6567C21.0617 19.9662 12.8752 22.1199 12.5311 22.2121C11.9093 22.3789 11.5395 23.0182 11.7063 23.6412C11.8463 24.1626 12.3175 24.5057 12.8321 24.5057C12.9325 24.5057 13.0339 24.4928 13.1355 24.466C13.2137 24.4439 21.0956 22.3707 27.7339 23.9282C28.358 24.074 28.9893 23.6855 29.1362 23.0578C29.2831 22.4314 28.8934 21.8037 28.2657 21.6567Z" fill="#B0B0B0"/>
<path d="M28.2657 28.6567C21.0617 26.9674 12.8752 29.1199 12.5311 29.212C11.9093 29.3788 11.5395 30.0183 11.7063 30.6411C11.8463 31.1626 12.3175 31.5056 12.8321 31.5056C12.9325 31.5056 13.0339 31.4928 13.1355 31.466C13.2137 31.4438 21.0956 29.3706 27.7339 30.9281C28.358 31.074 28.9893 30.6854 29.1362 30.0578C29.2831 29.4313 28.8934 28.8037 28.2657 28.6567Z" fill="#B0B0B0"/>
<path d="M39.7923 47.2018C39.9987 47.6056 40.4094 47.8388 40.8341 47.8388C41.0114 47.8388 41.1934 47.7979 41.3626 47.7117C41.4314 47.6767 48.2984 44.1883 51.6852 43.1185C52.2989 42.9237 52.6395 42.268 52.4447 41.6544C52.2509 41.0408 51.6 40.6989 50.9806 40.8926C47.4129 42.0208 40.5926 45.4858 40.3033 45.6327C39.7293 45.9244 39.5007 46.6268 39.7923 47.2018Z" fill="#B0B0B0"/>
<path d="M28.2657 35.6564C21.0617 33.9671 12.8752 36.1184 12.5311 36.2118C11.9093 36.3786 11.5395 37.018 11.7063 37.6409C11.8463 38.1623 12.3175 38.5066 12.8321 38.5066C12.9325 38.5066 13.0339 38.4926 13.1355 38.4657C13.2137 38.4435 21.0956 36.3704 27.7339 37.9278C28.358 38.0737 28.9893 37.6852 29.1362 37.0575C29.2831 36.4311 28.8934 35.8034 28.2657 35.6564Z" fill="#B0B0B0"/>
<path d="M28.2657 49.6563C21.0617 47.9657 12.8752 50.1195 12.5311 50.2116C11.9093 50.3784 11.5395 51.0178 11.7063 51.6407C11.8463 52.1621 12.3175 52.5064 12.8321 52.5064C12.9325 52.5064 13.0339 52.4925 13.1355 52.4655C13.2137 52.4434 21.0956 50.3702 27.7339 51.9277C28.358 52.0723 28.9893 51.685 29.1362 51.0573C29.2831 50.4309 28.8934 49.8032 28.2657 49.6563Z" fill="#B0B0B0"/>
<path d="M28.2657 42.6565C21.0617 40.966 12.8752 43.1184 12.5311 43.2118C11.9093 43.3786 11.5395 44.018 11.7063 44.6409C11.8463 45.1624 12.3175 45.5066 12.8321 45.5066C12.9325 45.5066 13.0339 45.4927 13.1355 45.4657C13.2137 45.4436 21.0956 43.3704 27.7339 44.9279C28.358 45.0738 28.9893 44.6852 29.1362 44.0575C29.2831 43.4311 28.8934 42.8034 28.2657 42.6565Z" fill="#B0B0B0"/>
</svg>
