<svg width="70" height="70" viewBox="0 0 70 70" fill="none" xmlns="http://www.w3.org/2000/svg">
<path d="M50.1667 29.1667C39.2132 29.1667 30.3333 38.0466 30.3333 49.0001C30.3333 59.9535 39.2132 68.8334 50.1667 68.8334C61.1201 68.8334 70 59.9535 70 49.0001C69.988 38.0518 61.115 29.1787 50.1667 29.1667ZM50.1667 66.5001C40.5018 66.5001 32.6667 58.665 32.6667 49.0001C32.6667 39.3352 40.5018 31.5001 50.1667 31.5001C59.8315 31.5001 67.6667 39.3352 67.6667 49.0001C67.6558 58.6604 59.827 66.4893 50.1667 66.5001Z" fill="#B0B0B0"/>
<path d="M51.3333 45.7148V38.5H49V45.7148C48.0116 46.0674 47.234 46.845 46.8814 47.8333H42V50.1667H46.8814C47.4209 51.7025 48.9504 52.6618 50.5683 52.4789C52.1861 52.2955 53.4622 51.0195 53.6456 49.4016C53.8284 47.7838 52.8691 46.2542 51.3333 45.7148ZM50.1667 50.1667C49.5224 50.1667 49 49.6443 49 49C49 48.3557 49.5224 47.8333 50.1667 47.8333C50.8109 47.8333 51.3333 48.3557 51.3333 49C51.3333 49.6443 50.8109 50.1667 50.1667 50.1667Z" fill="#B0B0B0"/>
<path d="M35 47.8333H37.3333V50.1666H35V47.8333Z" fill="#B0B0B0"/>
<path d="M49 61.8333H51.3333V64.1666H49V61.8333Z" fill="#B0B0B0"/>
<path d="M63 47.8333H65.3333V50.1666H63V47.8333Z" fill="#B0B0B0"/>
<path d="M49 33.8333H51.3333V36.1666H49V33.8333Z" fill="#B0B0B0"/>
<path d="M2.33333 51.3334V17.5001H56V28.0001H58.3333V11.6667C58.3293 8.44645 55.7203 5.8374 52.5 5.83341H44.3333V4.66675C44.3333 2.73389 42.7662 1.16675 40.8333 1.16675C38.9005 1.16675 37.3333 2.73389 37.3333 4.66675V5.83341H21V4.66675C21 2.73389 19.4329 1.16675 17.5 1.16675C15.5671 1.16675 14 2.73389 14 4.66675V5.83341H5.83333C2.61304 5.8374 0.00398764 8.44645 0 11.6667V51.3334C0.00398764 54.5537 2.61304 57.1628 5.83333 57.1667H29.1667V54.8334H5.83333C3.90047 54.8334 2.33333 53.2663 2.33333 51.3334ZM39.6667 4.66675C39.6667 4.02246 40.189 3.50008 40.8333 3.50008C41.4776 3.50008 42 4.02246 42 4.66675V9.33341C42 9.9777 41.4776 10.5001 40.8333 10.5001C40.189 10.5001 39.6667 9.9777 39.6667 9.33341V4.66675ZM16.3333 4.66675C16.3333 4.02246 16.8557 3.50008 17.5 3.50008C18.1443 3.50008 18.6667 4.02246 18.6667 4.66675V9.33341C18.6667 9.9777 18.1443 10.5001 17.5 10.5001C16.8557 10.5001 16.3333 9.9777 16.3333 9.33341V4.66675ZM5.83333 8.16675H14V9.33341C14 11.2663 15.5671 12.8334 17.5 12.8334C19.4329 12.8334 21 11.2663 21 9.33341V8.16675H37.3333V9.33341C37.3333 11.2663 38.9005 12.8334 40.8333 12.8334C42.7662 12.8334 44.3333 11.2663 44.3333 9.33341V8.16675H52.5C54.4329 8.16675 56 9.73389 56 11.6667V15.1667H2.33333V11.6667C2.33333 9.73389 3.90047 8.16675 5.83333 8.16675Z" fill="#B0B0B0"/>
<path d="M16.3333 26.8333C16.3333 25.5448 15.2886 24.5 14 24.5H9.33333C8.04476 24.5 7 25.5448 7 26.8333V31.5C7 32.7886 8.04476 33.8333 9.33333 33.8333H14C15.2886 33.8333 16.3333 32.7886 16.3333 31.5V26.8333ZM9.33333 31.5V26.8333H14V31.5H9.33333Z" fill="#B0B0B0"/>
<path d="M28 26.8333C28 25.5448 26.9552 24.5 25.6667 24.5H21C19.7114 24.5 18.6667 25.5448 18.6667 26.8333V31.5C18.6667 32.7886 19.7114 33.8333 21 33.8333H25.6667C26.9552 33.8333 28 32.7886 28 31.5V26.8333ZM21 31.5V26.8333H25.6667V31.5H21Z" fill="#B0B0B0"/>
<path d="M39.6667 30.3333V26.8333C39.6667 25.5448 38.6219 24.5 37.3333 24.5H32.6667C31.3781 24.5 30.3333 25.5448 30.3333 26.8333V31.5C30.3333 32.7886 31.3781 33.8333 32.6667 33.8333H35V31.5H32.6667V26.8333H37.3333V30.3333H39.6667Z" fill="#B0B0B0"/>
<path d="M14 38.5H9.33333C8.04476 38.5 7 39.5448 7 40.8333V45.5C7 46.7886 8.04476 47.8333 9.33333 47.8333H14C15.2886 47.8333 16.3333 46.7886 16.3333 45.5V40.8333C16.3333 39.5448 15.2886 38.5 14 38.5ZM9.33333 45.5V40.8333H14V45.5H9.33333Z" fill="#B0B0B0"/>
<path d="M25.6667 38.5H21C19.7114 38.5 18.6667 39.5448 18.6667 40.8333V45.5C18.6667 46.7886 19.7114 47.8333 21 47.8333H25.6667C26.9552 47.8333 28 46.7886 28 45.5V40.8333C28 39.5448 26.9552 38.5 25.6667 38.5ZM21 45.5V40.8333H25.6667V45.5H21Z" fill="#B0B0B0"/>
<path d="M51.3333 28V26.8333C51.3333 25.5448 50.2886 24.5 49 24.5H44.3333C43.0448 24.5 42 25.5448 42 26.8333V28H44.3333V26.8333H49V28H51.3333Z" fill="#B0B0B0"/>
</svg>
