<svg width="75" height="70" viewBox="0 0 75 70" fill="none" xmlns="http://www.w3.org/2000/svg">
<path d="M6.83579 63.0001H37.8642V60.6663H6.83579C4.8586 60.6663 3.25561 59.0992 3.25561 57.1663V5.83319C3.25561 3.89971 4.8586 2.33322 6.83579 2.33322H59.3453C61.3234 2.33322 62.9255 3.89971 62.9255 5.83319V32.6662H65.3127V5.83319C65.3088 2.61306 62.6395 0.00380144 59.3453 0H6.83579C3.54247 0.00380144 0.873115 2.61306 0.868927 5.83319V57.1663C0.873115 60.3864 3.54247 62.9957 6.83579 63.0001Z" fill="black"/>
<path d="M5.64288 4.66699H8.02927V6.99992H5.64288V4.66699Z" fill="black"/>
<path d="M10.4161 4.66699H12.8034V6.99992H10.4161V4.66699Z" fill="black"/>
<path d="M15.1895 4.66699H17.5765V6.99992H15.1895V4.66699Z" fill="black"/>
<path d="M5.64288 9.33325H60.5388V11.6671H5.64288V9.33325Z" fill="black"/>
<path d="M17.9263 14.3418L14.895 17.3052C12.3328 15.6469 8.90156 16.1557 6.95697 18.4822C5.01269 20.8084 5.18707 24.1969 7.35989 26.3208C9.5324 28.4455 12.9989 28.616 15.3787 26.715C17.7582 24.8142 18.279 21.4593 16.5824 18.955L19.6134 15.9916L17.9263 14.3418ZM11.6092 25.6663C9.63231 25.6663 8.02932 24.0995 8.02932 22.1667C8.02932 20.2335 9.63231 18.667 11.6092 18.667C12.1416 18.6687 12.6654 18.788 13.1431 19.0164L10.766 21.3406L12.453 22.9904L14.8319 20.6677C15.0655 21.1344 15.1879 21.6464 15.1897 22.1667C15.1897 24.0995 13.5873 25.6663 11.6092 25.6663Z" fill="black"/>
<path d="M21.1567 18.667H41.444V20.9999H21.1567V18.667Z" fill="black"/>
<path d="M21.1567 23.3333H29.5103V25.6662H21.1567V23.3333Z" fill="black"/>
<path d="M31.8973 23.3333H48.6044V25.6662H31.8973V23.3333Z" fill="black"/>
<path d="M43.8312 18.667H55.7652V20.9999H43.8312V18.667Z" fill="black"/>
<path d="M17.9263 28.3416L14.895 31.3049C12.3328 29.6466 8.90156 30.1554 6.95697 32.4819C5.01269 34.8084 5.18707 38.1967 7.35989 40.3211C9.5324 42.4452 12.9989 42.6157 15.3787 40.7147C17.7582 38.8137 18.279 35.4599 16.5824 32.9548L19.6134 29.9914L17.9263 28.3416ZM11.6092 39.6664C9.63231 39.6664 8.02932 38.0993 8.02932 36.1664C8.02932 34.2332 9.63231 32.6661 11.6092 32.6661C12.1416 32.6682 12.6654 32.7878 13.1431 33.0162L10.766 35.3409L12.453 36.9902L14.8319 34.6672C15.0655 35.1342 15.1879 35.6462 15.1897 36.1664C15.1897 38.0993 13.5873 39.6664 11.6092 39.6664Z" fill="black"/>
<path d="M21.1567 32.6663H41.444V34.9998H21.1567V32.6663Z" fill="black"/>
<path d="M21.1567 37.3333H29.5103V39.6665H21.1567V37.3333Z" fill="black"/>
<path d="M31.8973 37.3333H41.4441V39.6665H31.8973V37.3333Z" fill="black"/>
<path d="M43.8312 32.6663H48.6045V34.9998H43.8312V32.6663Z" fill="black"/>
<path d="M17.9263 42.3416L14.895 45.3049C12.3328 43.6466 8.90156 44.1554 6.95697 46.4819C5.01269 48.8084 5.18707 52.1967 7.35989 54.3211C9.5324 56.4455 12.9989 56.6154 15.3787 54.7147C17.7582 52.8137 18.279 49.4596 16.5824 46.9545L19.6134 43.9914L17.9263 42.3416ZM11.6092 53.6664C9.63231 53.6664 8.02932 52.0993 8.02932 50.1664C8.02932 48.2332 9.63231 46.6664 11.6092 46.6664C12.1416 46.6682 12.6654 46.7875 13.1431 47.0162L10.766 49.3409L12.453 50.9902L14.8319 48.6672C15.0655 49.1342 15.1879 49.6465 15.1897 50.1664C15.1897 52.0993 13.5873 53.6664 11.6092 53.6664Z" fill="black"/>
<path d="M21.1567 46.6663H36.6706V49.0001H21.1567V46.6663Z" fill="black"/>
<path d="M21.1567 51.333H29.5103V53.6662H21.1567V51.333Z" fill="black"/>
<path d="M31.8973 51.333H36.6707V53.6662H31.8973V51.333Z" fill="black"/>
<path d="M56.9589 70C66.8458 70 74.8595 62.1644 74.8595 52.4999C74.8595 42.8346 66.8458 34.9998 56.9589 34.9998C47.0721 34.9998 39.0577 42.8346 39.0577 52.4999C39.0694 62.16 47.0769 69.9884 56.9589 70ZM56.9589 37.3333C65.5267 37.3333 72.4731 44.1235 72.4731 52.4999C72.4731 60.8763 65.5267 67.6662 56.9589 67.6662C48.3903 67.6662 41.4441 60.8763 41.4441 52.4999C41.4543 44.1276 48.3942 37.3426 56.9589 37.3333Z" fill="black"/>
<path d="M49.6791 53.1447L47.5428 54.1875L49.9297 58.8542C50.1008 59.1899 50.4275 59.4247 50.8065 59.4846C50.8681 59.494 50.9297 59.499 50.9916 59.4999C51.3078 59.4999 51.6114 59.3767 51.8357 59.158L66.1559 45.1581L64.4688 43.5083L51.3183 56.3637L49.6791 53.1447Z" fill="black"/>
</svg>
