<svg width="70" height="70" viewBox="0 0 70 70" fill="none" xmlns="http://www.w3.org/2000/svg">
<path d="M59.7332 10.2618C53.1217 3.65026 44.3405 0 34.9876 0C25.6348 0 16.8536 3.6356 10.2421 10.2471C-2.51183 23.001 -3.43539 43.378 7.92587 57.1874C6.35728 60.3979 4.4955 62.5382 2.41382 63.5644C1.13843 64.1948 0.420107 65.5728 0.625343 66.9801C0.845238 68.4021 1.93006 69.5016 3.35204 69.7215C4.12901 69.8387 4.96461 69.912 5.82953 69.912C10.1248 69.912 14.64 68.4314 18.4075 65.8367C23.4798 68.5634 29.1824 70 34.9876 70C44.3405 70 53.1217 66.3644 59.7332 59.7529C66.3447 53.1414 69.9803 44.3456 69.9803 35.0073C69.9803 25.6691 66.3447 16.8733 59.7332 10.2618ZM56.9332 56.9529C51.0693 62.8168 43.2704 66.0419 34.9876 66.0419C29.4463 66.0419 24.0075 64.5613 19.2725 61.7759C18.9646 61.6 18.6128 61.4974 18.2756 61.4974C17.8505 61.4974 17.4107 61.644 17.0588 61.9079C12.573 65.3822 8.0578 65.8953 6.07875 65.9393C8.43896 64.1801 10.418 61.4534 12.0746 57.6565C12.3824 56.9529 12.2505 56.1319 11.7374 55.5456C0.889218 43.2901 1.46094 24.6136 13.0421 13.0325C18.906 7.16859 26.7049 3.94346 34.9876 3.94346C43.285 3.94346 51.0693 7.16859 56.9332 13.0325C69.0421 25.156 69.0421 44.8586 56.9332 56.9529Z" fill="black"/>
<path d="M43.8714 18.9696C40.7049 18.9696 37.729 20.201 35.4861 22.444L34.9876 22.9424L34.4892 22.444C32.2463 20.201 29.2704 18.9696 26.1039 18.9696C22.952 18.9696 19.9761 20.201 17.7478 22.4293C15.5049 24.6722 14.2735 27.6481 14.2882 30.8C14.2882 33.9665 15.5342 36.9277 17.7625 39.1707L33.5803 54.9885C33.9615 55.3696 34.4745 55.5748 34.973 55.5748C35.4714 55.5748 35.9845 55.3843 36.3656 55.0031L52.2274 39.2C54.4704 36.957 55.7018 33.9811 55.7018 30.8293C55.7018 27.6628 54.4704 24.6869 52.2421 22.444C49.9992 20.201 47.0232 18.9696 43.8714 18.9696ZM49.4274 36.4L34.973 50.7958L20.5478 36.3707C19.0526 34.8754 18.2316 32.8963 18.2316 30.7853C18.2316 28.6743 19.0526 26.6953 20.5332 25.2146C22.0138 23.734 23.9929 22.9131 26.1039 22.9131C28.2149 22.9131 30.1939 23.734 31.6892 25.2293L33.595 27.1351C34.3719 27.912 35.618 27.912 36.395 27.1351L38.2861 25.2439C39.7813 23.7487 41.7604 22.9277 43.8714 22.9277C45.9677 22.9277 47.9468 23.7487 49.4421 25.2439C50.9374 26.7392 51.7583 28.7183 51.7437 30.8146C51.7437 32.9256 50.9227 34.9047 49.4274 36.4Z" fill="black"/>
</svg>
