<svg width="71" height="70" viewBox="0 0 71 70" fill="none" xmlns="http://www.w3.org/2000/svg">
<path d="M70.549 68.3972L54.0688 26.0195C53.8929 25.5666 53.4572 25.2689 52.9721 25.2689C52.4864 25.2689 52.0507 25.5666 51.8749 26.0195L45.7678 41.7341L36.9627 16.9868L38.4048 18.0335C39.2296 18.6324 40.3464 18.6318 41.1712 18.0324C41.9961 17.4334 42.3415 16.3712 42.0265 15.4016L40.8494 11.7638L43.9446 9.51578C44.7694 8.91628 45.1148 7.85351 44.7993 6.88328C44.4843 5.91304 43.5802 5.25664 42.5599 5.25664H38.7353L37.5581 1.61941C37.2409 0.653198 36.3385 0.000244141 35.3217 0.000244141C34.3049 0.000244141 33.4025 0.653198 33.0852 1.61941L31.908 5.25664H28.069C27.0494 5.25664 26.1452 5.91304 25.8297 6.88328C25.5141 7.85351 25.8596 8.91628 26.685 9.51578L29.7796 11.7638L28.6024 15.4016C28.2754 16.3712 28.6226 17.4409 29.4571 18.0335C30.2785 18.6439 31.4028 18.6439 32.2247 18.0335L33.6663 16.9868L24.8612 41.7341L18.7541 26.0195C18.5782 25.5666 18.1425 25.2689 17.6574 25.2689C17.1717 25.2689 16.736 25.5666 16.5602 26.0195L0.079967 68.3972C-0.0608549 68.7593 -0.0137227 69.1674 0.205845 69.4881C0.425412 69.8083 0.788675 70.0002 1.17723 70.0002H69.4523C69.8403 70.0002 70.2041 69.8083 70.4231 69.4881C70.6427 69.1674 70.6898 68.7593 70.549 68.3972ZM30.8412 16.1287L32.0184 12.4914C32.3362 11.5218 31.9908 10.4579 31.1637 9.8595L28.069 7.61095H31.8937C32.9156 7.61268 33.8215 6.9557 34.1376 5.98431L35.3148 2.33501V2.34881L36.4919 5.98661C36.8081 6.95742 37.7145 7.61325 38.7353 7.61095H42.5599L39.4653 9.8595C38.6382 10.4579 38.2927 11.5218 38.6106 12.4914L39.7935 16.1287L36.6988 13.8818C35.874 13.2795 34.7549 13.2795 33.9301 13.8818L30.8412 16.1287ZM17.6574 29.6941L23.6605 45.1282L15.6491 67.6459H2.89813L17.6574 29.6941ZM18.1483 67.6459L35.3148 19.3647L52.4813 67.6459H18.1483ZM54.9804 67.6459L46.9685 45.1282L52.9721 29.6941L67.7308 67.6459H54.9804Z" fill="black"/>
</svg>
