<svg width="21" height="20" viewBox="0 0 21 20" fill="none" xmlns="http://www.w3.org/2000/svg">
<path fill-rule="evenodd" clip-rule="evenodd" d="M9.85651 6.3379C10.3746 5.63969 10.5604 4.90384 9.97444 4.25431C8.65949 2.41433 7.77515 1.27649 7.22044 0.728537C6.16589 -0.313196 4.43112 -0.172285 3.51779 0.727647C3.02723 1.21101 2.86116 1.377 2.35747 1.88861C-0.448184 4.69577 1.26285 10.63 5.81139 15.183C10.3589 19.735 16.2926 21.4469 19.1041 18.6338C19.5689 18.1858 19.9624 17.792 20.2728 17.464C21.1678 16.518 21.3037 14.8597 20.2669 13.7824C19.7354 13.2301 18.6503 12.3885 16.7329 11.0169C16.1457 10.4918 15.4494 10.6056 14.811 11.0244C14.504 11.2259 14.2805 11.4297 13.8585 11.8521L13.0923 12.6187C12.9914 12.7197 11.621 12.0334 10.2907 10.7018C8.95972 9.36953 8.2739 7.99906 8.37435 7.89862L9.14112 7.13142C9.27499 6.99742 9.339 6.93254 9.42108 6.84627C9.59209 6.66654 9.73368 6.50344 9.85651 6.3379ZM14.5057 14.0329L15.2721 13.2661C15.5044 13.0337 15.6549 12.8907 15.7773 12.7922C17.457 13.9984 18.4297 14.7568 18.8271 15.1697C19.0656 15.4176 19.0286 15.8699 18.8212 16.089C18.5342 16.3924 18.1613 16.7655 17.7037 17.2068C15.8857 19.0256 11.0959 17.6437 7.22513 13.7691C3.35315 9.89332 1.97188 5.10279 3.7762 3.29748C4.27786 2.78798 4.4368 2.62912 4.92035 2.15265C5.10166 1.97401 5.59552 1.93389 5.81608 2.15176C6.24314 2.57364 7.03534 3.58799 8.20071 5.21133C8.14038 5.28623 8.06503 5.37087 7.97333 5.46724C7.90603 5.53798 7.84996 5.59481 7.72738 5.71751L6.96136 6.48396C5.65821 7.787 6.76802 10.0047 8.87697 12.1157C10.9845 14.2253 13.203 15.3364 14.5057 14.0329Z" fill="#F88500"/>
</svg>
