<svg width="30" height="30" viewBox="0 0 30 30" fill="none" xmlns="http://www.w3.org/2000/svg">
<g clip-path="url(#clip0)">
<path d="M15.0001 30.0002C14.8604 30.0002 14.7271 29.9419 14.6326 29.8394C14.1776 29.3457 3.50008 17.6897 3.50008 11.5002C3.50008 5.14893 8.64876 0.000244141 15.0001 0.000244141C21.3514 0.000244141 26.5001 5.14893 26.5001 11.5002C26.5001 17.6897 15.8226 29.3457 15.3675 29.8394C15.273 29.9419 15.1397 30.0002 15.0001 30.0002ZM15.0001 1.00024C9.20369 1.00659 4.50642 5.70386 4.50008 11.5002C4.50008 16.6882 13.1002 26.6223 15.0001 28.7532C16.9 26.6223 25.5001 16.6868 25.5001 11.5002C25.4935 5.7041 20.7962 1.00684 15.0001 1.00024Z" fill="#FFAA30"/>
<path d="M15.0001 20.0002C10.3057 20.0002 6.50008 16.1946 6.50008 11.5002C6.50008 6.80591 10.3057 3.00024 15.0001 3.00024C19.6944 3.00024 23.5001 6.80591 23.5001 11.5002C23.495 16.1924 19.6922 19.9951 15.0001 20.0002ZM15.0001 4.00024C10.858 4.00024 7.50008 7.35815 7.50008 11.5002C7.50008 15.6423 10.858 19.0002 15.0001 19.0002C19.1422 19.0002 22.5001 15.6423 22.5001 11.5002C22.4954 7.36011 19.1402 4.00488 15.0001 4.00024Z" fill="#FFAA30"/>
<path d="M17.8529 16.4307C17.6412 16.4297 17.4354 16.3616 17.2647 16.2363L14.9998 14.5903L12.7344 16.2363C12.3839 16.4905 11.9095 16.4905 11.5591 16.2358C11.2088 15.9812 11.0621 15.53 11.1959 15.1182L12.0609 12.4553L9.79523 10.8093C9.44489 10.5547 9.29816 10.1033 9.4322 9.69116C9.56599 9.27905 9.95002 9.00024 10.3834 9.00024H13.1834L14.0499 6.33716C14.1846 5.92676 14.5679 5.64941 14.9998 5.64941C15.4317 5.64941 15.815 5.92676 15.9498 6.33716L16.8162 9.00024H19.6163C20.0496 9.00024 20.4337 9.27905 20.5675 9.69116C20.7015 10.1033 20.5548 10.5547 20.2044 10.8093L17.9388 12.4553L18.8038 15.1182C18.9429 15.53 18.7957 15.9844 18.4412 16.2363C18.2708 16.3618 18.0645 16.4299 17.8529 16.4307V16.4307ZM14.9998 13.5898C15.211 13.5898 15.4166 13.657 15.5872 13.7812L17.8529 15.4272L16.9879 12.7642C16.8529 12.3523 16.9996 11.9004 17.3509 11.6462L19.6163 10.0002H16.8162C16.3834 9.99976 16.0001 9.72095 15.8663 9.30933L14.9998 6.64624V6.64014L14.1348 9.30933C14.0008 9.72144 13.6168 10.0005 13.1834 10.0002H10.3834L12.6497 11.6462C13.0001 11.9009 13.1466 12.3521 13.0128 12.7637L12.1478 15.4272L14.4129 13.7812C14.5833 13.657 14.7889 13.5901 14.9998 13.5898V13.5898Z" fill="#FFAA30"/>
</g>
<defs>
<clipPath id="clip0">
<rect width="30" height="30" fill="white" transform="translate(0 0.000244141)"/>
</clipPath>
</defs>
</svg>
