<svg width="78" height="71" viewBox="0 0 78 71" fill="none" xmlns="http://www.w3.org/2000/svg">
<path d="M73.8889 12.5743H57.037V7.38907C57.0326 3.81097 54.1337 0.912023 50.5556 0.907593H27.2222C23.6441 0.912023 20.7452 3.81097 20.7407 7.38907V12.5743H3.88889C1.74127 12.5743 0 14.3155 0 16.4631V45.3184C0.00822844 46.9628 1.04438 48.4256 2.59259 48.9782V67.0187C2.59259 69.1663 4.33386 70.9076 6.48148 70.9076H71.2963C73.4439 70.9076 75.1852 69.1663 75.1852 67.0187V48.9794C76.7334 48.4262 77.7702 46.9628 77.7778 45.3184V16.4631C77.7778 14.3155 76.0365 12.5743 73.8889 12.5743ZM23.3333 7.38907C23.3333 5.24145 25.0746 3.50019 27.2222 3.50019H50.5556C52.7032 3.50019 54.4444 5.24145 54.4444 7.38907V12.5743H51.8519V7.38907C51.8519 6.6732 51.2714 6.09278 50.5556 6.09278H27.2222C26.5063 6.09278 25.9259 6.6732 25.9259 7.38907V12.5743H23.3333V7.38907ZM49.2593 12.5743H28.5185V8.68537H49.2593V12.5743ZM72.5926 67.0187C72.5926 67.7346 72.0122 68.315 71.2963 68.315H6.48148C5.76561 68.315 5.18519 67.7346 5.18519 67.0187V49.4238L33.7037 53.357V56.6483C33.7037 58.796 35.445 60.5372 37.5926 60.5372H40.1852C42.3328 60.5372 44.0741 58.796 44.0741 56.6483V53.357L72.5926 49.4238V67.0187ZM41.4815 56.6483C41.4815 57.3642 40.9011 57.9446 40.1852 57.9446H37.5926C36.8767 57.9446 36.2963 57.3642 36.2963 56.6483V48.8706C36.2963 48.1547 36.8767 47.5743 37.5926 47.5743H40.1852C40.9011 47.5743 41.4815 48.1547 41.4815 48.8706V56.6483ZM75.1852 45.3184C75.1858 45.9646 74.7105 46.5128 74.0705 46.6033L73.711 46.6527L44.0741 50.7397V48.8706C44.0741 46.7229 42.3328 44.9817 40.1852 44.9817H37.5926C35.445 44.9817 33.7037 46.7229 33.7037 48.8706V50.7397L3.7085 46.6033C3.06858 46.5134 2.59196 45.9653 2.59259 45.3184V16.4631C2.59259 15.7473 3.17301 15.1669 3.88889 15.1669H73.8889C74.6048 15.1669 75.1852 15.7473 75.1852 16.4631V45.3184Z" fill="black"/>
</svg>
