<svg width="179" height="137" viewBox="0 0 179 137" fill="none" xmlns="http://www.w3.org/2000/svg">
<g filter="url(#filter0_d)">
<path d="M117.539 54.6387C117.539 55.4199 117.734 56.0059 118.125 56.3965L119.004 57.7148C122.227 56.0547 126.523 55.2246 131.895 55.2246C139.219 55.2246 145.371 57.5684 150.352 62.2559C155.625 67.5293 158.262 74.0234 158.262 81.7383C158.262 91.6992 155.137 99.4141 148.887 104.883C142.734 110.352 134.58 113.086 124.424 113.086C114.365 113.086 105.918 109.521 99.082 102.393C102.402 96.7285 104.062 89.4531 104.062 80.5664C104.062 75.3906 102.842 70.4102 100.4 65.625C97.959 60.7422 94.9316 56.7871 91.3184 53.7598C94.1504 44.9707 99.0332 38.0859 105.967 33.1055C112.217 28.418 119.15 26.0742 126.768 26.0742C134.482 26.0742 140.537 27.5879 144.932 30.6152C149.326 33.5449 151.523 37.793 151.523 43.3594C151.523 47.0703 150.547 50.293 148.594 53.0273C144.492 50.0977 138.975 48.6328 132.041 48.6328C127.744 48.6328 124.229 49.1699 121.494 50.2441C118.857 51.2207 117.539 52.6855 117.539 54.6387ZM51.7676 52.2949C51.7676 53.2715 51.9141 53.9551 52.207 54.3457C52.5977 54.6387 52.9883 55.0781 53.3789 55.6641C56.7969 53.6133 61.5332 52.5879 67.5879 52.5879C75.498 52.5879 82.2852 55.3223 87.9492 60.791C93.7109 66.2598 96.5918 73.3398 96.5918 82.0312C96.5918 92.8711 93.1738 101.367 86.3379 107.52C79.502 113.574 70.8105 116.602 60.2637 116.602C47.8613 116.602 38.0469 112.402 30.8203 104.004C23.6914 95.6055 20.127 84.9121 20.127 71.9238C20.127 55.8105 24.5215 43.0176 33.3105 33.5449C41.123 25.1465 50.8887 20.9473 62.6074 20.9473C70.7129 20.9473 77.1582 22.6074 81.9434 25.9277C86.7285 29.1504 89.1211 33.8379 89.1211 39.9902C89.1211 44.5801 87.9492 48.2422 85.6055 50.9766C80.2344 47.6562 74.7168 45.9961 69.0527 45.9961C63.4863 45.9961 59.1895 46.5332 56.1621 47.6074C53.2324 48.6816 51.7676 50.2441 51.7676 52.2949Z" fill="#F76309"/>
<path d="M117.539 54.6387C117.539 55.4199 117.734 56.0059 118.125 56.3965L119.004 57.7148C122.227 56.0547 126.523 55.2246 131.895 55.2246C139.219 55.2246 145.371 57.5684 150.352 62.2559C155.625 67.5293 158.262 74.0234 158.262 81.7383C158.262 91.6992 155.137 99.4141 148.887 104.883C142.734 110.352 134.58 113.086 124.424 113.086C114.365 113.086 105.918 109.521 99.082 102.393C102.402 96.7285 104.062 89.4531 104.062 80.5664C104.062 75.3906 102.842 70.4102 100.4 65.625C97.959 60.7422 94.9316 56.7871 91.3184 53.7598C94.1504 44.9707 99.0332 38.0859 105.967 33.1055C112.217 28.418 119.15 26.0742 126.768 26.0742C134.482 26.0742 140.537 27.5879 144.932 30.6152C149.326 33.5449 151.523 37.793 151.523 43.3594C151.523 47.0703 150.547 50.293 148.594 53.0273C144.492 50.0977 138.975 48.6328 132.041 48.6328C127.744 48.6328 124.229 49.1699 121.494 50.2441C118.857 51.2207 117.539 52.6855 117.539 54.6387ZM51.7676 52.2949C51.7676 53.2715 51.9141 53.9551 52.207 54.3457C52.5977 54.6387 52.9883 55.0781 53.3789 55.6641C56.7969 53.6133 61.5332 52.5879 67.5879 52.5879C75.498 52.5879 82.2852 55.3223 87.9492 60.791C93.7109 66.2598 96.5918 73.3398 96.5918 82.0312C96.5918 92.8711 93.1738 101.367 86.3379 107.52C79.502 113.574 70.8105 116.602 60.2637 116.602C47.8613 116.602 38.0469 112.402 30.8203 104.004C23.6914 95.6055 20.127 84.9121 20.127 71.9238C20.127 55.8105 24.5215 43.0176 33.3105 33.5449C41.123 25.1465 50.8887 20.9473 62.6074 20.9473C70.7129 20.9473 77.1582 22.6074 81.9434 25.9277C86.7285 29.1504 89.1211 33.8379 89.1211 39.9902C89.1211 44.5801 87.9492 48.2422 85.6055 50.9766C80.2344 47.6562 74.7168 45.9961 69.0527 45.9961C63.4863 45.9961 59.1895 46.5332 56.1621 47.6074C53.2324 48.6816 51.7676 50.2441 51.7676 52.2949Z" fill="url(#paint0_linear)"/>
</g>
<defs>
<filter id="filter0_d" x="0.126953" y="0.947266" width="178.135" height="135.654" filterUnits="userSpaceOnUse" color-interpolation-filters="sRGB">
<feFlood flood-opacity="0" result="BackgroundImageFix"/>
<feColorMatrix in="SourceAlpha" type="matrix" values="0 0 0 0 0 0 0 0 0 0 0 0 0 0 0 0 0 0 127 0"/>
<feOffset/>
<feGaussianBlur stdDeviation="10"/>
<feColorMatrix type="matrix" values="0 0 0 0 1 0 0 0 0 0.666667 0 0 0 0 0.188235 0 0 0 0.6 0"/>
<feBlend mode="normal" in2="BackgroundImageFix" result="effect1_dropShadow"/>
<feBlend mode="normal" in="SourceGraphic" in2="effect1_dropShadow" result="shape"/>
</filter>
<linearGradient id="paint0_linear" x1="90" y1="-39" x2="90" y2="345" gradientUnits="userSpaceOnUse">
<stop stop-color="#FFAA30"/>
<stop offset="1" stop-color="#FF8200"/>
</linearGradient>
</defs>
</svg>
