<svg width="70" height="70" viewBox="0 0 70 70" fill="none" xmlns="http://www.w3.org/2000/svg">
<path d="M70 45.5V43.1667C69.9949 38.6584 66.3416 35.0051 61.8333 35H42.0103C45.8708 32.943 48.9368 29.6589 50.7244 25.6667H52.5C58.2992 25.6667 63 20.9658 63 15.1667C63 9.36751 58.2992 4.66667 52.5 4.66667V1.16667C52.5 0.522379 51.9776 0 51.3333 0H14C13.3557 0 12.8333 0.522379 12.8333 1.16667V17.5C12.8402 24.8281 16.8848 31.5558 23.3533 35H1.16667C0.52238 35 2.73882e-07 35.5224 2.73882e-07 36.1667V39.6667C2.73882e-07 40.311 0.52238 40.8333 1.16667 40.8333H2.33333V47.8333H1.16667C0.52238 47.8333 2.73882e-07 48.3557 2.73882e-07 49V52.5C2.73882e-07 53.1443 0.52238 53.6667 1.16667 53.6667H2.46265C0.887533 55.1985 -0.000569388 57.3028 2.73882e-07 59.5V61.8333C0.00512722 66.3416 3.65837 69.9949 8.16667 70H68.8333C69.4776 70 70 69.4776 70 68.8333V65.3333C70 64.689 69.4776 64.1667 68.8333 64.1667H67.6667V57.1667H68.8333C69.4776 57.1667 70 56.6443 70 56V52.5C70 51.8557 69.4776 51.3333 68.8333 51.3333H67.5374C69.1125 49.8015 70.0006 47.6972 70 45.5ZM52.3901 19.5149C52.4032 19.3981 52.4123 19.2722 52.422 19.1509C52.4687 18.5977 52.5 18.0457 52.5 17.5V10.5C55.0771 10.5 57.1667 12.5895 57.1667 15.1667C57.1667 17.7438 55.0771 19.8333 52.5 19.8333H52.3621C52.3752 19.7274 52.3832 19.6208 52.3901 19.5149ZM60.6667 15.1667C60.6701 17.3337 59.811 19.4129 58.2786 20.9453C56.7463 22.4777 54.667 23.3368 52.5 23.3333H51.6273C51.6364 23.3043 51.6415 23.2712 51.6495 23.2422C51.7555 22.8924 51.8352 22.5273 51.9224 22.1667H52.5C56.3657 22.1667 59.5 19.0324 59.5 15.1667C59.5 11.3009 56.3657 8.16667 52.5 8.16667V7C57.0083 7.00513 60.6615 10.6584 60.6667 15.1667ZM50.1667 2.33333V4.66667H35C34.3557 4.66667 33.8333 5.18905 33.8333 5.83333V8.75C33.8333 9.71671 33.05 10.5 32.0833 10.5C31.1166 10.5 30.3333 9.71671 30.3333 8.75V5.83333C30.3333 5.18905 29.811 4.66667 29.1667 4.66667H24.5C23.8557 4.66667 23.3333 5.18905 23.3333 5.83333V15.1667C23.3333 15.811 22.811 16.3333 22.1667 16.3333C21.5224 16.3333 21 15.811 21 15.1667V5.83333C21 5.18905 20.4776 4.66667 19.8333 4.66667H15.1667V2.33333H50.1667ZM15.1667 17.5V7H18.6667V15.1667C18.6667 17.0995 20.2338 18.6667 22.1667 18.6667C24.0995 18.6667 25.6667 17.0995 25.6667 15.1667V7H28V8.75C28 11.0053 29.828 12.8333 32.0833 12.8333C34.3386 12.8333 36.1667 11.0053 36.1667 8.75V7H50.1667V17.5C50.165 18.6029 50.0618 19.7029 49.8585 20.7864C49.6483 21.9092 49.323 23.0069 48.8866 24.0625C45.7432 31.8236 37.543 36.2703 29.3233 34.6707C21.1042 33.0711 15.1701 25.8735 15.1667 17.5ZM4.66667 40.8333H28C29.9329 40.8333 31.5 42.4005 31.5 44.3333C31.5 46.2662 29.9329 47.8333 28 47.8333H4.66667V40.8333ZM2.33333 51.3333V50.1667H28C31.2214 50.1667 33.8333 47.5548 33.8333 44.3333C33.8333 41.1119 31.2214 38.5 28 38.5H2.33333V37.3333H29.1667C32.387 37.3373 34.996 39.9464 35 43.1667V45.5C34.996 48.7203 32.387 51.3293 29.1667 51.3333H2.33333ZM8.16667 67.6667C4.94637 67.6627 2.33732 65.0536 2.33333 61.8333V59.5C2.33732 56.2797 4.94637 53.6707 8.16667 53.6667H35.1293C33.5542 55.1985 32.6661 57.3028 32.6667 59.5V61.8333C32.6661 64.0305 33.5542 66.1348 35.1293 67.6667H8.16667ZM65.3333 64.1667H42C40.0671 64.1667 38.5 62.5995 38.5 60.6667C38.5 58.7338 40.0671 57.1667 42 57.1667H65.3333V64.1667ZM67.6667 53.6667V54.8333H42C38.7786 54.8333 36.1667 57.4452 36.1667 60.6667C36.1667 63.8881 38.7786 66.5 42 66.5H67.6667V67.6667H40.8333C37.613 67.6627 35.004 65.0536 35 61.8333V59.5C35.004 56.2797 37.613 53.6707 40.8333 53.6667H67.6667ZM34.8707 51.3333C36.4458 49.8015 37.3339 47.6972 37.3333 45.5V43.1667C37.3339 40.9695 36.4458 38.8652 34.8707 37.3333H61.8333C65.0536 37.3373 67.6627 39.9464 67.6667 43.1667V45.5C67.6627 48.7203 65.0536 51.3293 61.8333 51.3333H34.8707Z" fill="black"/>
</svg>
