<svg width="70" height="70" viewBox="0 0 70 70" fill="none" xmlns="http://www.w3.org/2000/svg">
<path d="M25.6666 43.1666C25.6666 43.8106 26.1892 44.3332 26.8332 44.3332H31.4999C32.1439 44.3332 32.6666 43.8106 32.6666 43.1666V36.1666C32.6666 35.5227 32.1439 35 31.4999 35H26.8333C26.1894 35 25.6667 35.5227 25.6667 36.1666V43.1666H25.6666ZM27.9999 37.3334H30.3333V42H27.9999V37.3334Z" fill="#27AE60"/>
<path d="M26.8334 30.3334H31.5C32.1439 30.3334 32.6666 29.8107 32.6666 29.1667V22.1667C32.6666 21.5228 32.1439 21.0001 31.5 21.0001H26.8334C26.1894 21.0001 25.6667 21.5228 25.6667 22.1667V29.1667C25.6666 29.8107 26.1893 30.3334 26.8334 30.3334ZM28 23.3334H30.3334V28H28V23.3334Z" fill="#27AE60"/>
<path d="M18.1007 21.9998L34.9998 11.8604L51.8989 21.9998C52.0868 22.113 52.2944 22.1666 52.4986 22.1666C52.8952 22.1666 53.2814 21.9648 53.4996 21.6007C53.8321 21.0477 53.6525 20.3314 53.1007 20L36.1664 9.83965V2.33338H41.9998V4.66676H38.4998C37.8558 4.66676 37.3332 5.18943 37.3332 5.83338C37.3332 6.47732 37.8558 7 38.4998 7H43.1664C43.8104 7 44.333 6.47732 44.333 5.83338V1.16662C44.333 0.522676 43.8104 0 43.1664 0H34.9998C34.3558 0 33.8332 0.522676 33.8332 1.16662V9.83965L16.8991 20.0002C16.3473 20.3314 16.1676 21.0479 16.5001 21.6009C16.8301 22.1527 17.5487 22.3323 18.1007 21.9998Z" fill="#27AE60"/>
<path d="M12.8333 44.3334C13.4773 44.3334 13.9999 43.8107 13.9999 43.1667V36.1667C13.9999 35.5228 13.4773 35.0001 12.8333 35.0001H8.16656C7.52262 35.0001 6.99994 35.5228 6.99994 36.1667V38.5C6.99994 39.1439 7.52262 39.6666 8.16656 39.6666C8.81051 39.6666 9.33318 39.1439 9.33318 38.5V37.3334H11.6666V43.1667C11.6666 43.8107 12.1892 44.3334 12.8333 44.3334Z" fill="#27AE60"/>
<path d="M20.9999 59.5V25.6666C20.9999 25.0227 20.4773 24.5 19.8333 24.5C19.1894 24.5 18.6667 25.0227 18.6667 25.6666V59.5C18.6667 60.1439 19.1894 60.6666 19.8333 60.6666C20.4773 60.6666 20.9999 60.1439 20.9999 59.5Z" fill="#27AE60"/>
<path d="M15.1666 65.3333H54.8332C55.4771 65.3333 55.9998 64.8107 55.9998 64.1667C55.9998 63.5228 55.4771 63.0001 54.8332 63.0001H44.3332V51.3335H45.4998C46.1437 51.3335 46.6664 50.8108 46.6664 50.1669C46.6664 49.5229 46.1437 49.0002 45.4998 49.0002H24.4999C23.856 49.0002 23.3333 49.5229 23.3333 50.1669C23.3333 50.8108 23.856 51.3335 24.4999 51.3335H25.6666V63H15.1666C14.5226 63 13.9999 63.5226 13.9999 64.1666C13.9999 64.8105 14.5226 65.3333 15.1666 65.3333ZM36.1666 58.3333C36.8105 58.3333 37.3332 57.8107 37.3332 57.1667C37.3332 56.5228 36.8105 56.0001 36.1666 56.0001V51.3335H41.9999V63H36.1666V58.3333ZM27.9999 51.3333H33.8333V56C33.1894 56 32.6667 56.5226 32.6667 57.1666C32.6667 57.8105 33.1894 58.3332 33.8333 58.3332V63H27.9999V51.3333Z" fill="#27AE60"/>
<path d="M61.8332 50.1666H57.1666C56.5226 50.1666 55.9999 50.6893 55.9999 51.3332V58.3332C55.9999 58.9772 56.5226 59.4999 57.1666 59.4999H61.8332C62.4771 59.4999 62.9998 58.9772 62.9998 58.3332V51.3332C62.9998 50.6893 62.4771 50.1666 61.8332 50.1666ZM60.6664 57.1666H58.333V52.5H60.6664V57.1666Z" fill="#27AE60"/>
<path d="M61.8332 36.1666H57.1666C56.5226 36.1666 55.9999 36.6893 55.9999 37.3332V44.3332C55.9999 44.9772 56.5226 45.4999 57.1666 45.4999H61.8332C62.4771 45.4999 62.9998 44.9772 62.9998 44.3332V37.3332C62.9998 36.6893 62.4771 36.1666 61.8332 36.1666ZM60.6664 43.1666H58.333V38.5H60.6664V43.1666Z" fill="#27AE60"/>
<path d="M59.4998 67.6666H10.4998C9.85587 67.6666 9.33319 68.1893 9.33319 68.8332C9.33319 69.4772 9.85587 70 10.4998 70H59.4998C60.1438 70 60.6664 69.4773 60.6664 68.8334C60.6664 68.1894 60.1438 67.6666 59.4998 67.6666Z" fill="#27AE60"/>
<path d="M68.8333 25.6666C68.1894 25.6666 67.6667 26.1893 67.6667 26.8332V27.9999H54.8333C54.1894 27.9999 53.6667 28.5225 53.6667 29.1665C53.6667 29.8104 54.1894 30.3331 54.8333 30.3331H67.6667V68.8331C67.6667 69.4771 68.1894 69.9997 68.8333 69.9997C69.4773 69.9997 69.9999 69.4771 69.9999 68.8331V26.8331C69.9999 26.1893 69.4773 25.6666 68.8333 25.6666Z" fill="#27AE60"/>
<path d="M37.3333 43.1666C37.3333 43.8106 37.856 44.3332 38.4999 44.3332H43.1666C43.8105 44.3332 44.3332 43.8106 44.3332 43.1666V36.1666C44.3332 35.5227 43.8105 35 43.1666 35H38.4999C37.856 35 37.3333 35.5227 37.3333 36.1666V43.1666ZM39.6666 37.3334H41.9999V42H39.6666V37.3334Z" fill="#27AE60"/>
<path d="M11.6665 57.1666C11.6665 57.015 11.6001 42 5.83312 42C0.0663233 42 -0.00012207 57.015 -0.00012207 57.1666C-0.00012207 59.9841 2.00773 62.3396 4.6665 62.8821V68.8334C4.6665 69.4773 5.18917 70 5.83312 70C6.47707 70 6.99974 69.4773 6.99974 68.8334V62.8821C9.65865 62.3396 11.6665 59.9841 11.6665 57.1666ZM5.83326 60.6666C3.90361 60.6666 2.33326 59.0963 2.33326 57.1666C2.33326 51.3543 3.89431 44.3332 5.83326 44.3332C7.7722 44.3332 9.33326 51.3543 9.33326 57.1666C9.33326 59.0963 7.76291 60.6666 5.83326 60.6666Z" fill="#27AE60"/>
<path d="M51.3334 59.5V24.5C51.3334 23.856 50.8107 23.3334 50.1667 23.3334C49.5228 23.3334 49.0001 23.856 49.0001 24.5V59.5C49.0001 60.1439 49.5228 60.6666 50.1667 60.6666C50.8107 60.6666 51.3334 60.1439 51.3334 59.5Z" fill="#27AE60"/>
<path d="M38.4999 30.3334H43.1666C43.8105 30.3334 44.3332 29.8107 44.3332 29.1667V22.1667C44.3332 21.5228 43.8105 21.0001 43.1666 21.0001H38.4999C37.856 21.0001 37.3333 21.5228 37.3333 22.1667V29.1667C37.3333 29.8107 37.856 30.3334 38.4999 30.3334ZM39.6666 23.3334H41.9999V28H39.6666V23.3334Z" fill="#27AE60"/>
<path d="M1.1665 40.8333C1.81044 40.8333 2.33312 40.3107 2.33312 39.6667V30.3334H15.1665C15.8104 30.3334 16.3331 29.8107 16.3331 29.1667C16.3331 28.5228 15.8104 28.0001 15.1665 28.0001H2.33326V26.8335C2.33326 26.1895 1.81058 25.6669 1.16664 25.6669C0.52269 25.6669 -0.00012207 26.1893 -0.00012207 26.8334V39.6667C-0.00012207 40.3107 0.522554 40.8333 1.1665 40.8333Z" fill="#27AE60"/>
</svg>
