<svg width="36" height="37" viewBox="0 0 36 37" fill="none" xmlns="http://www.w3.org/2000/svg">
<path fill-rule="evenodd" clip-rule="evenodd" d="M35.7622 4.2939L21.3364 18.7197L35.7622 33.1455L31.9078 37L13.6275 18.7197L31.9078 0.439449L35.7622 4.2939ZM18.2802 0.439452L22.1347 4.2939L7.70884 18.7197L22.1347 33.1455L18.2802 37L-5.64214e-05 18.7197L18.2802 0.439452Z" fill="#F76309"/>
<path fill-rule="evenodd" clip-rule="evenodd" d="M35.7622 4.2939L21.3364 18.7197L35.7622 33.1455L31.9078 37L13.6275 18.7197L31.9078 0.439449L35.7622 4.2939ZM18.2802 0.439452L22.1347 4.2939L7.70884 18.7197L22.1347 33.1455L18.2802 37L-5.64214e-05 18.7197L18.2802 0.439452Z" fill="url(#paint0_linear)"/>
<defs>
<linearGradient id="paint0_linear" x1="35.7622" y1="18.7197" x2="-5.64214e-05" y2="18.7197" gradientUnits="userSpaceOnUse">
<stop stop-color="#FFAA30"/>
<stop offset="1" stop-color="#FF8200"/>
</linearGradient>
</defs>
</svg>
