<svg width="70" height="70" viewBox="0 0 70 70" fill="none" xmlns="http://www.w3.org/2000/svg">
<g clip-path="url(#clip0)">
<path d="M68.9645 23.632C69.5365 23.632 70.0001 23.1684 70.0001 22.597V18.4559C70.0001 17.8845 69.5365 17.4209 68.9645 17.4209H61.9598C61.3879 17.4209 60.9243 17.8845 60.9243 18.4559C60.9243 19.0279 61.3879 19.4914 61.9598 19.4914H67.9295V21.5615H30.5914C28.194 21.5615 26.2436 23.5124 26.2436 25.9098C26.2436 27.9504 27.6568 29.6663 29.5564 30.1326V32.2442C28.2351 32.0317 27.0175 31.4138 26.0535 30.4492C24.8407 29.2364 24.1731 27.6246 24.1731 25.9098C24.1731 22.3705 27.0522 19.4914 30.5914 19.4914H57.1629C57.7349 19.4914 58.1979 19.0279 58.1979 18.4559C58.1979 17.8845 57.7349 17.4209 57.1629 17.4209H30.5914C25.9104 17.4209 22.1026 21.2287 22.1026 25.9098C22.1026 28.1774 22.9859 30.3093 24.5897 31.9131C24.7344 32.0584 24.885 32.1951 25.0383 32.3281H23.1376C22.5661 32.3281 22.1026 32.7916 22.1026 33.3636V37.5047C22.1026 38.0761 22.5661 38.5397 23.1376 38.5397H24.8631V43.0947H23.1376C22.5661 43.0947 22.1026 43.5582 22.1026 44.1302V48.2708C22.1026 48.8427 22.5661 49.3063 23.1376 49.3063H25.0452C23.2449 50.8642 22.1026 53.1627 22.1026 55.7246C22.1026 57.9922 22.9859 60.1247 24.5897 61.7285C26.1924 63.3312 28.3238 64.214 30.5914 64.214H46.1261C46.6981 64.214 47.1611 63.7504 47.1611 63.1785C47.1611 62.6065 46.6981 62.1435 46.1261 62.1435H38.1141V60.0729H66.196C66.1987 60.0729 66.2013 60.0735 66.204 60.0735C66.2067 60.0735 66.2093 60.0729 66.212 60.0729H67.9295V62.1435H50.9556C50.3841 62.1435 49.9206 62.607 49.9206 63.179C49.9206 63.7504 50.3841 64.214 50.9556 64.214H68.9645C69.5365 64.214 70.0001 63.7504 70.0001 63.179V59.0379C70.0001 58.4659 69.5365 58.0024 68.9645 58.0024H67.2395V53.4474H68.9645C69.5365 53.4474 70.0001 52.9838 70.0001 52.4124V48.2713C70.0001 47.6999 69.5365 47.2363 68.9645 47.2363H67.0644C67.2176 47.1033 67.3682 46.9661 67.513 46.8213C69.1167 45.217 70.0001 43.0851 70.0001 40.8175C70.0001 38.2556 68.8577 35.9565 67.0574 34.3986H68.9645C69.5365 34.3986 70.0001 33.935 70.0001 33.3636V29.2225C70.0001 28.6511 69.5365 28.1875 68.9645 28.1875H67.2395V23.6325H68.9645V23.632ZM36.0436 31.5088L34.317 30.7579C34.059 30.6458 33.7658 30.6436 33.5063 30.7521L31.6269 31.535V26.9453H36.0441V31.5088H36.0436ZM26.9336 38.5397H61.5107C62.7668 38.5397 63.7885 39.5619 63.7885 40.8175C63.7885 41.7002 63.2827 42.4656 62.5462 42.8437V40.818C62.5462 40.246 62.0827 39.7824 61.5107 39.7824H55.0235C54.4515 39.7824 53.988 40.246 53.988 40.818V43.0952H26.9336V38.5397ZM60.4757 46.4427L58.5963 45.6598C58.4687 45.6063 58.3336 45.5802 58.1979 45.5802C58.0575 45.5802 57.917 45.6085 57.7856 45.6656L56.0585 46.4165V41.853H60.4757V46.4427ZM24.1731 47.2358V45.1652H25.8906C25.8933 45.1652 25.896 45.1658 25.8986 45.1658C25.9013 45.1658 25.904 45.1652 25.9066 45.1652H53.9885V47.2358H24.1731ZM36.0436 61.3242L34.317 60.5733C34.059 60.4612 33.7658 60.4585 33.5063 60.5669L31.6269 61.3504V56.7607H36.0441V61.3242H36.0436ZM65.169 58.0024H38.1141V55.7257C38.1141 55.1537 37.6506 54.6901 37.0791 54.6901H30.5914C30.02 54.6901 29.5564 55.1537 29.5564 55.7257V57.7508C28.8199 57.3733 28.3136 56.6079 28.3136 55.7252C28.3136 54.469 29.3358 53.4474 30.5914 53.4474H65.169V58.0024ZM67.9295 49.3063V51.3769H30.5914C28.194 51.3769 26.2436 53.3278 26.2436 55.7252C26.2436 57.7658 27.6568 59.4817 29.5564 59.9474V62.0596C28.2351 61.8465 27.0175 61.2286 26.0535 60.2646C24.8407 59.0518 24.1731 57.4395 24.1731 55.7252C24.1731 52.1859 27.0522 49.3063 30.5914 49.3063H67.9295ZM67.9295 40.8175C67.9295 42.5318 67.262 44.1441 66.0491 45.3569C65.0846 46.3209 63.867 46.9388 62.5462 47.1519V45.0397C64.4453 44.574 65.859 42.8581 65.859 40.8175C65.859 38.4201 63.9086 36.4692 61.5112 36.4692H24.1731V34.3986H61.5112C65.0504 34.3986 67.9295 37.2782 67.9295 40.8175ZM67.9295 32.3281H38.1141V30.2581H66.196H66.204H66.212H67.9295V32.3281ZM65.169 28.1875H38.1141V25.9103C38.1141 25.3383 37.6506 24.8747 37.0791 24.8747H30.5914C30.02 24.8747 29.5564 25.3383 29.5564 25.9103V27.936C28.8199 27.5579 28.3136 26.7926 28.3136 25.9098C28.3136 24.6542 29.3358 23.632 30.5914 23.632H65.169V28.1875Z" fill="black"/>
<path d="M15.0051 34.0211C15.0051 34.02 15.0046 34.0195 15.0046 34.0184L11.7244 18.7112L11.0424 15.5304C11.0424 15.5304 11.0424 15.5298 11.0424 15.5293L10.1458 11.346C10.0261 10.7874 9.47498 10.4312 8.91689 10.5508L8.30913 10.6811L7.48508 6.83431C7.36491 6.27515 6.8143 5.9184 6.25568 6.0391L1.39682 7.08051C1.12818 7.13765 0.893733 7.29947 0.74473 7.53019C0.595728 7.7609 0.543925 8.04128 0.601603 8.30938L1.42565 12.1562L0.81843 12.2865C0.550333 12.3437 0.315348 12.5055 0.166346 12.7362C0.0173433 12.9669 -0.0344603 13.2473 0.023218 13.5154L0.919901 17.6992L1.9031 22.2883C1.9031 22.2894 1.90364 22.2905 1.90364 22.291L4.88261 36.1904L5.55499 39.3275C5.67462 39.8866 6.22523 40.2439 6.78386 40.1227C7.34302 40.0031 7.69923 39.453 7.57961 38.8938L7.12405 36.7688L13.1974 35.4673L17.7951 56.9204L15.6044 61.5192L11.7218 58.2219L8.5847 43.5855C8.46507 43.0264 7.91393 42.6696 7.3553 42.7903C6.79614 42.9099 6.44046 43.46 6.56009 44.0192L9.77085 59C9.81838 59.2238 9.93907 59.4246 10.1126 59.5725L15.2898 63.9684C15.4789 64.1286 15.717 64.2146 15.96 64.2146C16.0321 64.2146 16.1048 64.2071 16.1769 64.1916C16.4909 64.1243 16.7563 63.9144 16.8946 63.6244L19.8154 57.4929C19.9137 57.2868 19.9409 57.0539 19.8934 56.8307L15.0051 34.0211ZM6.68987 34.7442L4.14508 22.8667L6.16916 22.4331L7.91927 30.5988C8.02341 31.0843 8.45279 31.417 8.93077 31.417C9.00234 31.417 9.0755 31.4095 9.14867 31.394C9.70783 31.2739 10.0635 30.7238 9.94388 30.1646L8.19377 21.9989L10.2184 21.5652L12.7637 33.4427L6.68987 34.7442ZM2.26466 14.0938L2.87082 13.964H2.87188L7.73074 12.9226H7.73181L8.3385 12.7928L8.801 14.952L5.76541 15.6025C5.76541 15.6025 5.76488 15.6025 5.76434 15.6025C5.76381 15.6025 5.76327 15.603 5.76327 15.603L2.72769 16.2535L2.26466 14.0938ZM9.7842 19.5412L7.75958 19.9748L7.21004 17.4103L9.23465 16.9761L9.34787 17.5037L9.7842 19.5412ZM3.16134 18.2781L5.18596 17.8439L5.7355 20.4085L3.71089 20.8427L3.17416 18.339L3.16134 18.2781ZM3.45027 11.722L2.84304 8.88776L5.67729 8.28054L6.28451 11.1148L5.09463 11.3695L3.45027 11.722Z" fill="black"/>
</g>
<defs>
<clipPath id="clip0">
<rect width="70" height="70" fill="white" transform="translate(0.000183105)"/>
</clipPath>
</defs>
</svg>
