<svg width="48" height="48" viewBox="0 0 48 48" fill="none" xmlns="http://www.w3.org/2000/svg">
<path d="M0 24C0 10.7452 10.7452 0 24 0C37.2548 0 48 10.7452 48 24C48 37.2548 37.2548 48 24 48C10.7452 48 0 37.2548 0 24Z" fill="#4C6C91"/>
<path d="M25.2555 31.8762C25.2555 31.8762 25.7175 31.8258 25.9541 31.5763C26.1708 31.3477 26.1632 30.9163 26.1632 30.9163C26.1632 30.9163 26.1344 28.9019 27.0873 28.6044C28.0264 28.3119 29.2321 30.5525 30.5118 31.4141C31.4784 32.0655 32.2121 31.9229 32.2121 31.9229L35.6316 31.8762C35.6316 31.8762 37.4196 31.768 36.5719 30.3878C36.5018 30.2747 36.0773 29.3664 34.0302 27.5007C31.8853 25.5478 32.1733 25.8636 34.7551 22.485C36.3278 20.4275 36.9563 19.1714 36.7597 18.6343C36.5732 18.1206 35.4162 18.257 35.4162 18.257L31.5673 18.2804C31.5673 18.2804 31.2818 18.2423 31.0702 18.3664C30.8636 18.4881 30.7296 18.772 30.7296 18.772C30.7296 18.772 30.1211 20.3636 29.3085 21.718C27.5944 24.5744 26.9095 24.7255 26.629 24.5486C25.9767 24.1344 26.1395 22.8869 26.1395 22.0007C26.1395 19.2317 26.5677 18.0776 25.3068 17.7789C24.8886 17.6794 24.5806 17.6142 23.5101 17.6032C22.1365 17.5897 20.9746 17.6081 20.316 17.924C19.8777 18.1341 19.5397 18.6036 19.7462 18.6307C20.0004 18.6638 20.5764 18.7831 20.8819 19.1911C21.2763 19.7184 21.2625 20.9007 21.2625 20.9007C21.2625 20.9007 21.4892 24.1602 20.7329 24.5645C20.2145 24.8423 19.5033 24.2757 17.9745 21.6836C17.192 20.3563 16.601 18.8888 16.601 18.8888C16.601 18.8888 16.487 18.6147 16.2829 18.4672C16.0363 18.289 15.692 18.2337 15.692 18.2337L12.0346 18.257C12.0346 18.257 11.4849 18.2718 11.2833 18.5065C11.1043 18.7142 11.2696 19.1456 11.2696 19.1456C11.2696 19.1456 14.1331 25.7223 17.376 29.0371C20.3498 32.0753 23.7254 31.8762 23.7254 31.8762H25.2555Z" fill="white"/>
</svg>
